<mxfile host="app.diagrams.net" modified="2024-07-22T21:25:21.426Z" agent="Mozilla/5.0 (X11; Ubuntu; Linux x86_64; rv:127.0) Gecko/20100101 Firefox/127.0" version="24.7.3" etag="thScVwUbwhRjJKHkSde_" type="github">
  <diagram name="Page-1" id="uXlLufxAuGwAFeF1TgNO">
    <mxGraphModel>
      <root>
        <mxCell id="0" />
        <mxCell id="1" parent="0" />
      </root>
    </mxGraphModel>
  </diagram>
</mxfile>
